<svg width="200" height="200" xmlns="http://www.w3.org/2000/svg" xmlns:xlink="http://www.w3.org/1999/xlink" version="1.1" x="0px" y="0px" viewBox="0 0 80 100" style="enable-background:new 0 0 80 80;" xml:space="preserve"><path d="M66.708,48.4091c0.0098-0.0221,0.0146-0.0453,0.0229-0.0682C67.5552,45.7053,68,42.9037,68,40  c0-8.2349-3.5742-15.6492-9.252-20.777c-0.0142-0.0131-0.0278-0.025-0.0425-0.0371C53.7432,14.7219,47.1846,12,40,12  c-15.4395,0-28,12.5605-28,28c0,0.2979,0.0132,0.5928,0.0225,0.8884C12.0181,40.9268,12,40.9604,12,41  c0,0.051,0.0215,0.0947,0.0288,0.1437C12.6318,56.0542,24.9443,68,40,68c3.6543,0,7.1436-0.7111,10.3472-1.99  c0.0244-0.0092,0.0479-0.0173,0.0718-0.0283C58.1479,62.8711,64.1821,56.4141,66.708,48.4091z M51,63.551V50c0-0.5513,0.4482-1,1-1  h12.3926C62.0137,55.427,57.1621,60.6613,51,63.551z M38,65.9155V37.2368c0-1.144-0.6357-2.1729-1.6597-2.6841l-6.5308-3.2612  C29.9214,30.877,30,30.4493,30,30c0-2.7568-2.2432-5-5-5s-5,2.2432-5,5s2.2432,5,5,5c1.5908,0,2.9941-0.7609,3.9102-1.9224  l6.5366,3.2642C35.7881,36.5122,36,36.8555,36,37.2368v28.4548C24.2017,63.8621,15.0078,54.0701,14.0845,42H26  c0.5513,0,1,0.4487,1,1v5.1011c-2.2793,0.4646-4,2.4845-4,4.8989c0,2.7568,2.2432,5,5,5s5-2.2432,5-5  c0-2.4144-1.7207-4.4343-4-4.8989V43c0-1.6543-1.3457-3-3-3H14c0-14.3364,11.6636-26,26-26c6.1563,0,11.8154,2.155,16.2739,5.7441  l-8.3638,4.178C46.9937,22.7607,45.5908,22,44,22c-2.7568,0-5,2.2432-5,5s2.2432,5,5,5s5-2.2432,5-5  c0-0.4492-0.0786-0.8767-0.1904-1.2913l9.0894-4.5403C62.8833,25.9084,66,32.595,66,40c0,2.4253-0.3408,4.7712-0.9648,7H52  c-1.6543,0-3,1.3457-3,3v14.3923c-1.5991,0.5919-3.2715,1.0314-5,1.2993V44.1772c0-0.3633,0.1973-0.6982,0.5146-0.8745l3.7104-2.061  C49.1426,42.3088,50.4854,43,52,43c2.7568,0,5-2.2432,5-5s-2.2432-5-5-5s-5,2.2432-5,5c0,0.5238,0.1035,1.0193,0.2534,1.4941  l-3.7095,2.0601C42.5918,42.0825,42,43.0874,42,44.1772v21.7383C41.3389,65.9661,40.6738,66,40,66S38.6611,65.9661,38,65.9155z   M25,33c-1.6543,0-3-1.3457-3-3s1.3457-3,3-3s3,1.3457,3,3S26.6543,33,25,33z M28,50c1.6543,0,3,1.3457,3,3s-1.3457,3-3,3  s-3-1.3457-3-3S26.3457,50,28,50z M47,27c0,1.6543-1.3457,3-3,3s-3-1.3457-3-3s1.3457-3,3-3S47,25.3457,47,27z M49,38  c0-1.6543,1.3457-3,3-3s3,1.3457,3,3s-1.3457,3-3,3S49,39.6543,49,38z"/></svg>