<svg width="200" height="200" xmlns="http://www.w3.org/2000/svg" xmlns:xlink="http://www.w3.org/1999/xlink" version="1.1" x="0px" y="0px" viewBox="0 0 100 125" enable-background="new 0 0 100 100" xml:space="preserve"><path d="M50,1.6C23.1,1.6,1.2,23.4,1.2,50.4S23.1,99.1,50,99.1s48.8-21.8,48.8-48.8S76.9,1.6,50,1.6z M72.6,82.6  c-0.4,0.5-1.1,0.8-1.7,0.8c-0.5,0-1.1-0.2-1.4-0.5L33.3,52.7v28.5c0,1.2-1.1,2.2-2.2,2.2c-1.2,0-2.2-1-2.2-2.2v-62  c0-1.2,1-2.2,2.2-2.2c1.2,0,2.2,1,2.2,2.2v24.4l36.3-26.2c1-0.7,2.4-0.5,3.1,0.4c0.7,1.1,0.4,2.4-0.5,3.1L34.6,48.1l37.7,31.4  C73.2,80.3,73.4,81.6,72.6,82.6z"/></svg>